<svg width="100" height="100" viewBox="0 0 100 100" fill="none" xmlns="http://www.w3.org/2000/svg">
<path d="M49.9999 8.33331C44.5282 8.33331 39.11 9.41105 34.0548 11.505C28.9995 13.5989 24.4062 16.6681 20.5371 20.5372C12.7231 28.3512 8.33325 38.9493 8.33325 50C8.33325 68.4166 20.2916 84.0416 36.8333 89.5833C38.9166 89.9166 39.5833 88.625 39.5833 87.5V80.4583C28.0416 82.9583 25.5833 74.875 25.5833 74.875C23.6666 70.0416 20.9583 68.75 20.9583 68.75C17.1666 66.1666 21.2499 66.25 21.2499 66.25C25.4166 66.5416 27.6249 70.5416 27.6249 70.5416C31.2499 76.875 37.3749 75 39.7499 74C40.1249 71.2916 41.2083 69.4583 42.3749 68.4166C33.1249 67.375 23.4166 63.7916 23.4166 47.9166C23.4166 43.2916 24.9999 39.5833 27.7083 36.625C27.2916 35.5833 25.8333 31.25 28.1249 25.625C28.1249 25.625 31.6249 24.5 39.5833 29.875C42.8749 28.9583 46.4583 28.5 49.9999 28.5C53.5416 28.5 57.1249 28.9583 60.4166 29.875C68.3749 24.5 71.8749 25.625 71.8749 25.625C74.1666 31.25 72.7083 35.5833 72.2916 36.625C74.9999 39.5833 76.5833 43.2916 76.5833 47.9166C76.5833 63.8333 66.8333 67.3333 57.5416 68.375C59.0416 69.6666 60.4166 72.2083 60.4166 76.0833V87.5C60.4166 88.625 61.0833 89.9583 63.2083 89.5833C79.7499 84 91.6666 68.4166 91.6666 50C91.6666 44.5282 90.5889 39.1101 88.4949 34.0548C86.401 28.9996 83.3318 24.4063 79.4627 20.5372C75.5936 16.6681 71.0003 13.5989 65.9451 11.505C60.8898 9.41105 55.4717 8.33331 49.9999 8.33331Z" fill="white"/>
</svg>
