<svg width="28" height="28" viewBox="0 0 28 28" fill="none" xmlns="http://www.w3.org/2000/svg">
<g clip-path="url(#clip0_77_119)">
<path d="M22.75 8.75C22.75 6.42936 21.8281 4.20376 20.1872 2.56282C18.5463 0.921872 16.3207 0 14 0C13.3653 0.00431387 12.7325 0.0687687 12.11 0.1925C10.5576 0.541138 9.12967 1.30646 7.97979 2.40612C6.82991 3.50577 6.00163 4.89815 5.58406 6.43344C5.16649 7.96872 5.17544 9.58881 5.60995 11.1194C6.04445 12.65 6.88806 14.0331 8.05001 15.12C9.12144 16.1105 9.80407 17.4509 9.97501 18.9C9.73165 18.9 9.49379 18.9724 9.29178 19.1081C9.08976 19.2438 8.93274 19.4366 8.84074 19.6619C8.74874 19.8872 8.72593 20.1348 8.77523 20.3731C8.82452 20.6114 8.94368 20.8297 9.11751 21C9.0011 21.1141 8.90862 21.2502 8.84549 21.4004C8.78235 21.5507 8.74983 21.712 8.74983 21.875C8.74983 22.038 8.78235 22.1993 8.84549 22.3496C8.90862 22.4998 9.0011 22.6359 9.11751 22.75C8.94368 22.9203 8.82452 23.1386 8.77523 23.3769C8.72593 23.6152 8.74874 23.8628 8.84074 24.0881C8.93274 24.3134 9.08976 24.5062 9.29178 24.6419C9.49379 24.7776 9.73165 24.85 9.97501 24.85H10.5C10.5 25.7783 10.8688 26.6685 11.5251 27.3249C12.1815 27.9813 13.0718 28.35 14 28.35C14.9283 28.35 15.8185 27.9813 16.4749 27.3249C17.1313 26.6685 17.5 25.7783 17.5 24.85H18.06C18.3034 24.85 18.5412 24.7776 18.7433 24.6419C18.9453 24.5062 19.1023 24.3134 19.1943 24.0881C19.2863 23.8628 19.3091 23.6152 19.2598 23.3769C19.2105 23.1386 19.0913 22.9203 18.9175 22.75C19.0339 22.6359 19.1264 22.4998 19.1895 22.3496C19.2527 22.1993 19.2852 22.038 19.2852 21.875C19.2852 21.712 19.2527 21.5507 19.1895 21.4004C19.1264 21.2502 19.0339 21.1141 18.9175 21C19.0913 20.8297 19.2105 20.6114 19.2598 20.3731C19.3091 20.1348 19.2863 19.8872 19.1943 19.6619C19.1023 19.4366 18.9453 19.2438 18.7433 19.1081C18.5412 18.9724 18.3034 18.9 18.06 18.9C18.231 17.4509 18.9136 16.1105 19.985 15.12C20.8562 14.3031 21.551 13.3166 22.0265 12.221C22.502 11.1255 22.7482 9.94426 22.75 8.75ZM15.575 18.9H12.425C12.2496 16.7657 11.282 14.7744 9.71251 13.3175C8.92483 12.6002 8.33544 11.6918 8.0013 10.6802C7.66716 9.66857 7.59955 8.58788 7.80501 7.5425C8.03243 6.33856 8.60787 5.22773 9.46013 4.34748C10.3124 3.46723 11.404 2.85619 12.6 2.59C13.0615 2.501 13.5301 2.45414 14 2.45C15.6709 2.45 17.2733 3.11375 18.4548 4.29523C19.6363 5.47671 20.3 7.07914 20.3 8.75C20.3029 9.60978 20.1253 10.4606 19.7786 11.2474C19.4319 12.0342 18.9239 12.7394 18.2875 13.3175C16.718 14.7744 15.7504 16.7657 15.575 18.9ZM14 4.375V6.125C14.6962 6.125 15.3639 6.40156 15.8562 6.89384C16.3485 7.38613 16.625 8.05381 16.625 8.75H18.375C18.375 7.58968 17.9141 6.47688 17.0936 5.65641C16.2731 4.83594 15.1603 4.375 14 4.375Z" fill="black"/>
</g>
<defs>
<clipPath id="clip0_77_119">
<rect width="28" height="28" fill="white"/>
</clipPath>
</defs>
</svg>
