<svg width="287" height="175" viewBox="0 0 287 175" fill="none" xmlns="http://www.w3.org/2000/svg">
<path d="M80.3721 34.7997C139.288 54.8926 141.332 120.961 101.146 140.032C101.146 140.032 109.13 138.757 114.087 137.307C119.421 135.748 122.443 134.772 127.369 132.199C130.705 130.456 135.542 127.091 135.542 127.091C135.542 127.091 142.689 121.564 146.44 117.215C161.499 99.7544 166.977 80.5655 158.019 59.3198C155.221 52.6844 152.595 49.4877 148 43.8952L147.802 43.6542C147.802 43.6542 141.613 37.6107 136.905 34.7997C131.051 31.3046 127.244 30.0037 120.558 28.6697C115.846 27.7296 108.298 27.648 108.298 27.648C108.298 27.648 101.821 27.958 97.7405 28.6697C94.372 29.2571 92.4629 29.6093 89.2266 30.713C85.622 31.9423 80.3721 34.7997 80.3721 34.7997Z" fill="white"/>
<path d="M33.7158 67.4932C96.3784 74.9854 104.552 123.345 94.6756 139.351C108.789 133.723 114.25 128.453 119.536 115.171C124.822 101.89 118.855 74.3043 98.4217 64.0876C77.9883 53.8709 56.6379 54.1073 33.7158 67.4932Z" fill="white"/>
<path d="M91.6099 136.967C70.1548 107.338 40.5263 89.6294 0 95.0783C0 95.0783 29.6085 71.1038 64.7059 86.5644C99.8033 102.025 92.819 136.962 91.6099 136.967Z" fill="white"/>
<path d="M134.18 3.46841C194.8 43.3136 178.112 130.496 103.53 142.075C103.53 142.075 108.505 142.584 111.704 142.756C117.547 143.071 120.839 142.915 126.688 142.756C131.88 142.615 134.792 142.484 139.97 142.075C145.973 141.602 149.336 141.239 155.295 140.372C161.852 139.419 165.514 138.745 171.982 137.307C179.509 135.635 183.743 134.649 191.053 132.199C197.844 129.924 201.643 128.526 208.081 125.388C213.864 122.569 217.126 120.921 222.385 117.215C226.018 114.654 227.946 113.048 231.239 110.063C235.841 105.893 238.711 103.421 242.478 98.4839C244.805 95.4341 246.564 93.035 247.927 90.3105C249.289 87.5861 251.1 83.8343 252.694 79.4127C254.325 74.8913 255.039 72.5214 256.1 67.8337C256.52 65.9765 257.122 63.0659 257.122 63.0659C257.122 63.0659 257.618 56.6015 257.122 52.5087C256.644 48.5699 256.076 46.3676 254.738 42.6325C253.754 39.8866 253.171 38.3237 251.673 35.8214C250.114 33.2195 248.925 31.9535 246.905 29.6913C244.461 26.9547 243.031 25.4193 240.094 23.2207C236.236 20.3329 233.704 19.1353 229.196 17.4313C221.771 14.6246 209.103 14.3662 209.103 14.3662C209.103 14.3662 220.714 34.0611 221.023 49.1031C221.331 64.145 221.363 57.2091 221.023 62.3848C220.644 68.1466 220.539 71.4694 218.979 77.0288C217.578 82.0227 216.257 84.6835 213.871 89.2889C211.562 93.7449 210.035 96.1447 207.06 100.187C204.152 104.137 202.366 106.266 198.886 109.722C196.058 112.532 194.279 113.954 191.209 116.409L191.053 116.533C187.709 119.208 182.199 123.004 182.199 123.004L173.345 128.112C173.345 128.112 167.58 130.718 163.809 132.199C159.737 133.798 157.44 134.681 153.252 135.945C149.052 137.212 146.69 138.006 142.354 138.67C139.319 139.134 134.521 139.351 134.521 139.351C134.521 139.351 141.392 137.343 145.759 135.945C151.247 134.189 154.411 133.411 159.722 131.177C166.083 128.502 169.636 126.816 175.388 123.004C180.513 119.608 183.218 117.391 187.648 113.128C192.679 108.286 195.304 105.281 199.227 99.5056C202.638 94.4831 204.467 91.5216 206.719 85.8833C208.763 80.7654 209.381 77.6782 210.461 72.2798L210.465 72.261L210.483 72.1715C211.159 68.7965 211.546 66.8631 211.827 63.4065C212.152 59.4298 212.19 57.1631 211.827 53.1898C211.256 46.9255 210.324 43.401 208.081 37.5241C207.253 35.3541 206.733 34.1542 205.697 32.0752C204.395 29.4617 203.552 28.0465 201.951 25.6046C200.128 22.824 199.039 21.2904 196.843 18.7935C193.86 15.4007 191.945 13.6689 188.329 10.9607C183.8 7.56896 181.011 5.83502 175.728 3.80897C174.158 3.20659 173.257 2.91758 171.642 2.44674C169.412 1.79666 168.138 1.49644 165.852 1.08451C163.872 0.727575 162.747 0.59537 160.744 0.403396C155.581 -0.0913565 152.617 -0.175915 147.462 0.403396C142.172 0.997933 134.18 3.46841 134.18 3.46841Z" fill="white"/>
<path d="M263.592 38.8864C275.512 84.1805 236.007 130.156 170.279 139.351C170.279 139.351 178.378 139.544 183.561 139.351C192.646 139.012 197.753 138.475 206.719 136.967C218.775 134.939 225.59 133.451 237.029 129.134C242.044 127.241 244.918 126.245 249.629 123.685C255.01 120.762 257.861 118.745 262.57 114.831C267.199 110.983 269.641 108.578 273.468 103.933C277.245 99.3493 279.161 96.3875 281.642 90.9916C283.451 87.0556 284.202 84.9416 285.388 80.7749C285.953 78.7891 286.084 76.0026 286.409 73.9638C286.518 73.2826 286.75 70.6851 286.75 67.4932C286.75 66.0302 286.577 65.2004 286.409 63.747C286.087 60.9474 285.543 59.4965 284.366 56.9359C283.346 54.7175 282.7 53.4877 281.301 51.487C279.896 49.4773 279.004 48.3959 277.214 46.7192C275.623 45.2277 274.609 44.5137 272.787 43.3136C269.459 41.1209 263.592 38.8864 263.592 38.8864Z" fill="white"/>
<path d="M266.954 149.811H272.388V173.982H266.954V149.811ZM256.288 173.982H250.854V149.811H256.288V173.982ZM267.356 164.072H255.885V159.341H267.356V164.072Z" fill="white"/>
<path d="M236.821 174.396C235.01 174.396 233.321 174.097 231.756 173.498C230.213 172.877 228.871 172.002 227.731 170.874C226.591 169.746 225.696 168.422 225.048 166.903C224.422 165.384 224.109 163.715 224.109 161.896C224.109 160.078 224.422 158.409 225.048 156.889C225.696 155.37 226.591 154.046 227.731 152.918C228.894 151.79 230.247 150.927 231.79 150.329C233.332 149.707 235.021 149.396 236.854 149.396C238.889 149.396 240.723 149.765 242.355 150.501C244.01 151.215 245.396 152.274 246.514 153.678L243.026 156.993C242.221 156.049 241.327 155.347 240.343 154.887C239.359 154.403 238.285 154.161 237.123 154.161C236.027 154.161 235.021 154.346 234.104 154.714C233.187 155.082 232.393 155.612 231.723 156.302C231.052 156.993 230.526 157.81 230.146 158.754C229.788 159.698 229.609 160.745 229.609 161.896C229.609 163.047 229.788 164.095 230.146 165.039C230.526 165.982 231.052 166.8 231.723 167.49C232.393 168.181 233.187 168.71 234.104 169.079C235.021 169.447 236.027 169.631 237.123 169.631C238.285 169.631 239.359 169.401 240.343 168.94C241.327 168.457 242.221 167.732 243.026 166.765L246.514 170.08C245.396 171.484 244.01 172.555 242.355 173.291C240.723 174.028 238.878 174.396 236.821 174.396Z" fill="white"/>
<path d="M207.408 159.548H218.712V163.899H207.408V159.548ZM207.811 169.493H220.59V173.982H202.411V149.811H220.154V154.3H207.811V169.493Z" fill="white"/>
<path d="M185.869 173.982V154.369H178.356V149.811H198.816V154.369H191.303V173.982H185.869Z" fill="white"/>
<path d="M152.199 174.247L162.664 150.076H168.03L178.529 174.247H172.827L164.24 152.908H166.387L157.766 174.247H152.199ZM157.431 169.068L158.873 164.821H170.948L172.424 169.068H157.431Z" fill="white"/>
<path d="M122.515 174.247L114.834 150.076H120.469L127.143 171.485H124.326L131.303 150.076H136.334L143.042 171.485H140.325L147.168 150.076H152.367L144.686 174.247H138.849L132.913 155.463H134.455L128.351 174.247H122.515Z" fill="white"/>
<path d="M88.7201 174.247L99.1851 150.076H104.552L115.05 174.247H109.348L100.762 152.908H102.908L94.288 174.247H88.7201ZM93.9526 169.068L95.3949 164.821H107.47L108.946 169.068H93.9526Z" fill="white"/>
<path d="M72.2512 168.723L71.9493 162.265L83.1857 150.076H89.2231L79.0936 161.299L76.0749 164.613L72.2512 168.723ZM67.3877 174.247V150.076H72.7879V174.247H67.3877ZM83.454 174.247L75.1022 163.716L78.6576 159.745L89.7933 174.247H83.454Z" fill="white"/>
</svg>
